<?xml version="1.0" encoding="iso-8859-1"?>
<!-- Generator: Adobe Illustrator 21.0.0, SVG Export Plug-In . SVG Version: 6.00 Build 0)  -->
<svg version="1.1" id="Capa_1" xmlns="http://www.w3.org/2000/svg" xmlns:xlink="http://www.w3.org/1999/xlink" x="0px" y="0px"
	 viewBox="0 0 591.146 591.146" style="enable-background:new 0 0 591.146 591.146;" xml:space="preserve">
<g>
	<g>
		<g id="filled_outline_6_">
			<rect x="177.344" y="9.852" style="fill:#4398D1;" width="354.688" height="472.917"/>
			<polygon style="fill:#3E8CC7;" points="177.344,413.802 177.344,482.769 532.031,482.769 532.031,59.115 			"/>
			<rect x="413.802" y="157.639" style="fill:#5EB3D1;" width="68.967" height="19.705"/>
			<rect x="354.688" y="98.524" style="fill:#5EB3D1;" width="128.082" height="19.705"/>
			<rect x="443.359" y="216.753" style="fill:#5EB3D1;" width="39.41" height="19.705"/>
			<rect x="443.359" y="275.868" style="fill:#5EB3D1;" width="39.41" height="19.705"/>
			<rect x="443.359" y="334.983" style="fill:#5EB3D1;" width="39.41" height="19.705"/>
			<rect x="443.359" y="394.097" style="fill:#5EB3D1;" width="39.41" height="19.705"/>
			<polygon style="fill:#3A83BA;" points="325.13,108.377 167.491,108.377 167.491,482.769 443.359,482.769 443.359,226.606 			"/>
			<polygon style="fill:#87CED9;" points="413.802,226.606 413.802,581.293 59.115,581.293 59.115,108.377 295.573,108.377 			"/>
			<polygon style="fill:#71C4D1;" points="59.115,416.265 59.115,581.293 413.802,581.293 413.802,226.606 331.288,144.092 			"/>
			<polygon style="fill:#EBEBEB;" points="295.573,108.377 295.573,226.606 413.802,226.606 			"/>
			<rect x="108.377" y="197.049" style="fill:#5EB3D1;" width="59.115" height="19.705"/>
			<rect x="187.196" y="197.049" style="fill:#5EB3D1;" width="78.819" height="19.705"/>
			<rect x="108.377" y="256.163" style="fill:#5EB3D1;" width="177.344" height="19.705"/>
			<rect x="305.425" y="256.163" style="fill:#5EB3D1;" width="59.115" height="19.705"/>
			<rect x="108.377" y="315.278" style="fill:#5EB3D1;" width="256.163" height="19.705"/>
			<rect x="108.377" y="374.392" style="fill:#5EB3D1;" width="118.229" height="19.705"/>
			<rect x="246.311" y="374.392" style="fill:#5EB3D1;" width="118.229" height="19.705"/>
			<rect x="108.377" y="433.507" style="fill:#5EB3D1;" width="78.819" height="19.705"/>
			<rect x="206.901" y="433.507" style="fill:#5EB3D1;" width="157.639" height="19.705"/>
			<rect x="108.377" y="492.622" style="fill:#5EB3D1;" width="256.163" height="19.705"/>
			<path d="M532.031,0H177.344c-5.439,0-9.852,4.414-9.852,9.852v68.967h19.705V19.705h334.983v453.212h-78.819v19.705h88.672
				c5.439,0,9.852-4.414,9.852-9.852V9.852C541.884,4.414,537.47,0,532.031,0z"/>
			<path d="M302.539,101.411c-1.842-1.852-4.355-2.887-6.966-2.887H59.115c-5.439,0-9.852,4.414-9.852,9.852v472.917
				c0,5.438,4.414,9.852,9.852,9.852h354.688c5.439,0,9.852-4.414,9.852-9.852V226.606c0-2.611-1.035-5.123-2.887-6.966
				L302.539,101.411z M305.425,132.161l84.593,84.593h-84.593V132.161z M68.967,571.441V118.229H285.72v108.377
				c0,5.439,4.414,9.852,9.852,9.852H403.95v334.983H68.967z"/>
			<rect x="108.377" y="197.049" width="59.115" height="19.705"/>
			<rect x="187.196" y="197.049" width="78.819" height="19.705"/>
			<rect x="108.377" y="256.163" width="177.344" height="19.705"/>
			<rect x="305.425" y="256.163" width="59.115" height="19.705"/>
			<rect x="108.377" y="315.278" width="256.163" height="19.705"/>
			<rect x="108.377" y="374.392" width="118.229" height="19.705"/>
			<rect x="246.311" y="374.392" width="118.229" height="19.705"/>
			<rect x="108.377" y="433.507" width="78.819" height="19.705"/>
			<rect x="206.901" y="433.507" width="157.639" height="19.705"/>
			<rect x="108.377" y="492.622" width="256.163" height="19.705"/>
			<rect x="413.802" y="157.639" width="68.967" height="19.705"/>
			<rect x="354.688" y="98.524" width="128.082" height="19.705"/>
			<rect x="443.359" y="216.753" width="39.41" height="19.705"/>
			<rect x="443.359" y="275.868" width="39.41" height="19.705"/>
			<rect x="443.359" y="334.983" width="39.41" height="19.705"/>
			<rect x="443.359" y="394.097" width="39.41" height="19.705"/>
		</g>
	</g>
</g>
<g>
</g>
<g>
</g>
<g>
</g>
<g>
</g>
<g>
</g>
<g>
</g>
<g>
</g>
<g>
</g>
<g>
</g>
<g>
</g>
<g>
</g>
<g>
</g>
<g>
</g>
<g>
</g>
<g>
</g>
</svg>
