<svg height="480pt" viewBox="0 0 480 480" width="480pt" xmlns="http://www.w3.org/2000/svg"><path d="m88 120v-96c0-8.835938 7.164062-16 16-16h90.398438c3.636718 0 7.164062 1.234375 10 3.503906l35.601562 28.496094h232v328c0 22.089844-17.910156 40-40 40" fill="#f79d1e"/><g fill="#eb7c28"><path d="m112 32h16v16h-16zm0 0"/><path d="m144 32h16v16h-16zm0 0"/><path d="m176 32h16v16h-16zm0 0"/></g><path d="m48 80h384v288h-384zm0 0" fill="#eaeef0"/><path d="m392 144h24v224h-24zm0 0" fill="#dbdfe0"/><path d="m432 408c22.089844 0 40-17.910156 40-40 0 22.089844-17.910156 40-40 40s-40-17.910156-40-40v-248h-384v248c0 22.089844 17.910156 40 40 40zm0 0" fill="#ffc14d"/><path d="m32 144h16v16h-16zm0 0" fill="#ffd68a"/><path d="m32 176h16v48h-16zm0 0" fill="#ffd68a"/><path d="m392 368v-205.097656c-113.519531 122.953125-280.359375 190.609375-380 222.234375 6.578125 13.933593 20.59375 22.832031 36 22.863281h384c-22.089844 0-40-17.910156-40-40zm0 0" fill="#ffb730"/><path d="m472 384c0 48.601562-39.398438 88-88 88s-88-39.398438-88-88 39.398438-88 88-88 88 39.398438 88 88zm0 0" fill="#4398d1"/><path d="m314 437.175781c29.25 38.75 84.371094 46.449219 123.121094 17.199219 38.746094-29.246094 46.449218-84.371094 17.199218-123.117188-33.59375 50.019532-83.007812 87.320313-140.320312 105.917969zm0 0" fill="#368ec9"/><path d="m432 376h-40v-40h-16v40h-40v16h40v40h16v-40h40zm0 0" fill="#126099"/><path d="m472 32h-229.191406l-33.425782-26.734375c-4.253906-3.402344-9.535156-5.2578125-14.984374-5.265625h-90.398438c-13.253906 0-24 10.746094-24 24v48h-32c-4.417969 0-8 3.582031-8 8v32h-32c-4.417969 0-8 3.582031-8 8v248c.0273438 26.5 21.5 47.972656 48 48h224v-16h-224c-17.671875 0-32-14.328125-32-32v-240h368v144h16v-152c0-4.417969-3.582031-8-8-8h-336v-24h368v192h16v-200c0-4.417969-3.582031-8-8-8h-336v-48c0-4.417969 3.582031-8 8-8h90.398438c1.820312 0 3.582031.617188 5 1.753906l35.617187 28.492188c1.414063 1.132812 3.171875 1.75 4.984375 1.753906h224v256h16v-264c0-4.417969-3.582031-8-8-8zm0 0"/><path d="m112 32h16v16h-16zm0 0"/><path d="m144 32h16v16h-16zm0 0"/><path d="m176 32h16v16h-16zm0 0"/><path d="m384 288c-53.019531 0-96 42.980469-96 96s42.980469 96 96 96 96-42.980469 96-96c-.058594-52.996094-43.003906-95.941406-96-96zm0 176c-44.183594 0-80-35.816406-80-80s35.816406-80 80-80 80 35.816406 80 80c-.046875 44.164062-35.835938 79.953125-80 80zm0 0"/><path d="m392 336h-16v40h-40v16h40v40h16v-40h40v-16h-40zm0 0"/><path d="m32 144h16v16h-16zm0 0"/><path d="m32 176h16v48h-16zm0 0"/></svg>