<svg height="480pt" viewBox="-36 0 480 480" width="480pt" xmlns="http://www.w3.org/2000/svg"><path d="m328 424h-320v-416h256l64 64zm0 0" fill="#87ced9"/><path d="m264 72v-64l64 64zm0 0" fill="#eaeef0"/><g fill="#5eb3d1"><path d="m48 256h64v16h-64zm0 0"/><path d="m48 352h32v16h-32zm0 0"/><path d="m48 304h168v16h-168zm0 0"/><path d="m128 256h160v16h-160zm0 0"/><path d="m48 160h80v16h-80zm0 0"/><path d="m144 160h144v16h-144zm0 0"/><path d="m208 208h80v16h-80zm0 0"/><path d="m48 208h144v16h-144zm0 0"/><path d="m48 112h144v16h-144zm0 0"/><path d="m208 112h80v16h-80zm0 0"/><path d="m96 352h104v16h-104zm0 0"/><path d="m48 64h48v16h-48zm0 0"/><path d="m112 64h32v16h-32zm0 0"/></g><path d="m272 72h56v16h-56zm0 0" fill="#71c4d1"/><path d="m400 384c0 48.601562-39.398438 88-88 88s-88-39.398438-88-88 39.398438-88 88-88 88 39.398438 88 88zm0 0" fill="#4398d1"/><path d="m242 437.175781c29.25 38.75 84.371094 46.449219 123.121094 17.199219 38.746094-29.246094 46.449218-84.371094 17.199218-123.117188-33.59375 50.019532-83.007812 87.320313-140.320312 105.917969zm0 0" fill="#368ec9"/><path d="m360 376h-40v-40h-16v40h-40v16h40v40h16v-40h40zm0 0" fill="#126099"/><path d="m336 272v-200c0-.175781-.089844-.328125-.105469-.503906-.039062-.699219-.175781-1.394532-.40625-2.054688-.089843-.257812-.152343-.503906-.265625-.753906-.386718-.871094-.929687-1.664062-1.597656-2.34375l-64-64c-.683594-.671875-1.480469-1.210938-2.351562-1.601562-.242188-.101563-.472657-.167969-.722657-.253907-.683593-.238281-1.394531-.378906-2.117187-.4179685-.128906.0078125-.273438-.0703125-.433594-.0703125h-256c-4.417969 0-8 3.582031-8 8v416c0 4.417969 3.582031 8 8 8h200v-16h-192v-400h240v56c0 4.417969 3.582031 8 8 8h56v192zm-64-208v-36.6875l36.6875 36.6875zm0 0"/><path d="m48 256h64v16h-64zm0 0"/><path d="m48 352h32v16h-32zm0 0"/><path d="m48 304h168v16h-168zm0 0"/><path d="m128 256h160v16h-160zm0 0"/><path d="m48 160h80v16h-80zm0 0"/><path d="m144 160h144v16h-144zm0 0"/><path d="m208 208h80v16h-80zm0 0"/><path d="m48 208h144v16h-144zm0 0"/><path d="m48 112h144v16h-144zm0 0"/><path d="m208 112h80v16h-80zm0 0"/><path d="m96 352h104v16h-104zm0 0"/><path d="m48 64h48v16h-48zm0 0"/><path d="m112 64h32v16h-32zm0 0"/><path d="m312 288c-53.019531 0-96 42.980469-96 96s42.980469 96 96 96 96-42.980469 96-96c-.058594-52.996094-43.003906-95.941406-96-96zm0 176c-44.183594 0-80-35.816406-80-80s35.816406-80 80-80 80 35.816406 80 80c-.046875 44.164062-35.835938 79.953125-80 80zm0 0"/><path d="m320 336h-16v40h-40v16h40v40h16v-40h40v-16h-40zm0 0"/></svg>