<?xml version="1.0" encoding="iso-8859-1"?>
<!-- Generator: Adobe Illustrator 19.0.0, SVG Export Plug-In . SVG Version: 6.00 Build 0)  -->
<svg version="1.1" id="Capa_1" xmlns="http://www.w3.org/2000/svg" xmlns:xlink="http://www.w3.org/1999/xlink" x="0px" y="0px"
	 viewBox="0 0 417.959 417.959" style="enable-background:new 0 0 417.959 417.959;" xml:space="preserve">
<polygon style="fill:#00BBD3;" points="402.286,154.645 364.669,192.784 307.722,135.837 318.171,125.91 345.861,98.22 "/>
<g>
	<polygon style="fill:#D4E1F4;" points="364.669,192.784 317.649,239.804 258.09,299.363 201.143,242.416 307.722,135.837 	"/>
	<polygon style="fill:#D4E1F4;" points="201.143,242.416 258.09,299.363 180.767,319.739 201.143,242.939 	"/>
</g>
<path style="fill:#4DCFE0;" d="M317.649,125.388L317.649,125.388l-9.927,10.449l-106.58,106.58v0.522l-20.376,76.8l77.322-20.376
	l59.559-59.559l0,0V381.91c0,8.882-6.792,15.673-15.673,15.673H31.347c-8.882,0-15.673-6.792-15.673-15.673V36.049
	c0-8.882,6.792-15.673,15.673-15.673h270.629c8.882,0,15.673,6.792,15.673,15.673V125.388z"/>
<g>
	<path style="fill:#3A2C51;" d="M413.257,143.673l-56.424-56.424c-5.747-5.747-16.196-5.747-21.943,0l-1.567,1.567V36.049
		c0-17.763-13.584-31.347-31.347-31.347H31.347C13.584,4.702,0,18.286,0,36.049V381.91c0,17.763,13.584,31.347,31.347,31.347
		h270.629c17.763,0,31.347-13.584,31.347-31.347V246.073l42.318-42.318l37.616-38.139
		C419.527,159.347,419.527,149.42,413.257,143.673z M301.976,381.91H31.347V36.049h270.629v83.592l-5.224,5.224l-106.58,106.58
		c-2.09,2.09-3.657,5.224-4.18,8.359l-20.376,76.278c-1.567,5.224,0,10.971,4.18,15.151c3.135,3.135,6.792,4.702,10.971,4.702
		c1.567,0,2.612,0,4.18-0.522l77.322-20.376c2.612-0.522,5.224-2.09,7.314-4.18l32.914-32.914V381.91H301.976z M209.502,272.718
		l18.286,18.286l-25.078,6.792L209.502,272.718z M258.09,277.42l-35.004-35.004l84.637-84.637l35.004,35.004L258.09,277.42z
		 M364.669,170.318l-34.482-34.482l15.673-15.673l34.482,34.482L364.669,170.318z"/>
	<path style="fill:#3A2C51;" d="M103.445,122.776H74.71c-8.882,0-15.673-6.792-15.673-15.673s6.792-15.673,15.673-15.673h28.735
		c8.882,0,15.673,6.792,15.673,15.673S112.327,122.776,103.445,122.776z"/>
	<path style="fill:#3A2C51;" d="M260.18,122.776H158.302c-8.882,0-15.673-6.792-15.673-15.673s6.792-15.673,15.673-15.673H260.18
		c8.882,0,15.673,6.792,15.673,15.673S269.061,122.776,260.18,122.776z"/>
	<path style="fill:#3A2C51;" d="M103.445,190.694H74.71c-8.882,0-15.673-6.792-15.673-15.673s6.792-15.673,15.673-15.673h28.735
		c8.882,0,15.673,6.792,15.673,15.673S112.327,190.694,103.445,190.694z"/>
	<path style="fill:#3A2C51;" d="M260.18,190.694H158.302c-8.882,0-15.673-6.792-15.673-15.673s6.792-15.673,15.673-15.673H260.18
		c8.882,0,15.673,6.792,15.673,15.673S269.061,190.694,260.18,190.694z"/>
	<path style="fill:#3A2C51;" d="M103.445,258.612H74.71c-8.882,0-15.673-6.792-15.673-15.673s6.792-15.673,15.673-15.673h28.735
		c8.882,0,15.673,6.792,15.673,15.673S112.327,258.612,103.445,258.612z"/>
	<path style="fill:#3A2C51;" d="M201.143,258.612h-42.841c-8.882,0-15.673-6.792-15.673-15.673s6.792-15.673,15.673-15.673h42.841
		c8.882,0,15.673,6.792,15.673,15.673S210.024,258.612,201.143,258.612z"/>
	<path style="fill:#3A2C51;" d="M103.445,326.531H74.71c-8.882,0-15.673-6.792-15.673-15.673s6.792-15.673,15.673-15.673h28.735
		c8.882,0,15.673,6.792,15.673,15.673S112.327,326.531,103.445,326.531z"/>
	<path style="fill:#3A2C51;" d="M182.857,326.531h-24.555c-8.882,0-15.673-6.792-15.673-15.673s6.792-15.673,15.673-15.673h24.555
		c8.882,0,15.673,6.792,15.673,15.673S191.739,326.531,182.857,326.531z"/>
</g>
<g>
</g>
<g>
</g>
<g>
</g>
<g>
</g>
<g>
</g>
<g>
</g>
<g>
</g>
<g>
</g>
<g>
</g>
<g>
</g>
<g>
</g>
<g>
</g>
<g>
</g>
<g>
</g>
<g>
</g>
</svg>
