<?xml version="1.0" encoding="iso-8859-1"?>
<!-- Generator: Adobe Illustrator 21.0.0, SVG Export Plug-In . SVG Version: 6.00 Build 0)  -->
<svg version="1.1" id="Capa_1" xmlns="http://www.w3.org/2000/svg" xmlns:xlink="http://www.w3.org/1999/xlink" x="0px" y="0px"
	 viewBox="0 0 602.672 602.672" style="enable-background:new 0 0 602.672 602.672;" xml:space="preserve">
<g>
	<g>
		<g>
			<g id="filled_outline_34_">
				<polygon style="fill:#DADDDF;" points="472.092,592.627 130.578,592.627 60.266,10.045 542.404,10.045 				"/>
				<polygon style="fill:#D1D4D6;" points="126.42,558.204 130.578,592.627 472.092,592.627 542.404,10.045 509.377,10.045 				"/>
				<path style="fill:#B6B8BA;" d="M421.377,311.38h84.655l2.431-20.089h-86.082l4.018-80.356h91.757l2.431-20.089h-93.183
					l4.018-80.356h98.858l2.421-20.089H69.969l2.421,20.089h98.858l4.018,80.356H82.083l2.431,20.089h91.757l4.018,80.356H94.207
					l2.431,20.089h84.655l4.018,80.356h-78.98l2.431,20.089h77.554l4.018,80.356h-71.879l2.421,20.089h360.92l2.421-20.089h-71.879
					l4.018-80.356h77.554l2.431-20.089h-78.98L421.377,311.38z M291.29,492.182h-80.848l-4.018-80.356h84.866V492.182z
					 M291.29,391.737H205.42l-4.018-80.356h89.888V391.737z M291.29,291.291h-90.893l-4.018-80.356h94.911V291.291z M291.29,190.846
					h-95.915l-4.018-80.356h99.933V190.846z M392.228,492.182h-80.848v-80.356h84.866L392.228,492.182z M397.25,391.737h-85.871
					V311.38h89.888L397.25,391.737z M402.272,291.291h-90.893v-80.356h94.911L402.272,291.291z M407.295,190.846h-95.915V110.49
					h99.933L407.295,190.846z"/>
				<path d="M52.753,3.385c-1.908,2.15-2.802,5.012-2.461,7.865l70.312,582.583c0.613,5.042,4.892,8.839,9.974,8.839h341.514
					c5.083,0,9.361-3.797,9.974-8.839L552.378,11.25c0.663-5.504-3.254-10.507-8.769-11.18C543.207,0.02,542.805,0,542.404,0H60.266
					C57.394,0,54.661,1.235,52.753,3.385z M118.876,411.826h67.439l4.018,80.356h-61.764L118.876,411.826z M311.379,311.38h89.888
					l-4.018,80.356h-85.871V311.38z M291.29,391.737H205.42l-4.018-80.356h89.888V391.737z M311.379,291.291v-80.356h94.911
					l-4.018,80.356H311.379z M291.29,291.291h-90.893l-4.018-80.356h94.911V291.291z M180.288,291.291h-75.957l-9.703-80.356h81.642
					L180.288,291.291z M181.293,311.38l4.018,80.356h-68.855l-9.703-80.356H181.293z M210.422,492.182l-4.018-80.356h84.886v80.356
					H210.422z M311.379,411.826h84.866l-4.018,80.356h-80.848V411.826z M416.355,411.826h67.439l-9.693,80.356h-61.764
					L416.355,411.826z M417.359,391.737l4.018-80.356h74.54l-9.703,80.356H417.359z M422.381,291.291l4.018-80.356h81.642
					l-9.703,80.356H422.381z M427.404,190.846l4.018-80.356h88.743l-9.703,80.356H427.404z M407.315,190.846h-95.935V110.49h99.933
					L407.315,190.846z M291.29,190.846h-95.915l-4.018-80.356h99.933V190.846z M171.248,110.49l4.018,80.356H92.208l-9.703-80.356
					H171.248z M139.487,582.583L131,512.271h340.67l-8.488,70.312H139.487z M531.073,20.089l-8.488,70.312H80.084l-8.488-70.312
					H531.073z"/>
			</g>
		</g>
	</g>
</g>
<g>
</g>
<g>
</g>
<g>
</g>
<g>
</g>
<g>
</g>
<g>
</g>
<g>
</g>
<g>
</g>
<g>
</g>
<g>
</g>
<g>
</g>
<g>
</g>
<g>
</g>
<g>
</g>
<g>
</g>
</svg>
